<svg xmlns="http://www.w3.org/2000/svg" width="1200" height="630" viewBox="0 0 1200 630" role="img" aria-label="Helpdesk">
  <defs>
    <linearGradient id="bg" x1="0%" y1="0%" x2="100%" y2="100%">
      <stop offset="0%" stop-color="#0f172a"/>
      <stop offset="50%" stop-color="#1e3a8a"/>
      <stop offset="100%" stop-color="#312e81"/>
    </linearGradient>
    <linearGradient id="accent" x1="0%" y1="0%" x2="100%" y2="0%">
      <stop offset="0%" stop-color="#3b82f6"/>
      <stop offset="100%" stop-color="#8b5cf6"/>
    </linearGradient>
  </defs>
  <rect width="1200" height="630" fill="url(#bg)"/>
  <circle cx="180" cy="120" r="220" fill="#2563eb" opacity="0.18"/>
  <circle cx="980" cy="520" r="260" fill="#7c3aed" opacity="0.16"/>
  <rect x="80" y="180" width="1040" height="270" rx="28" fill="#ffffff" opacity="0.04" stroke="#ffffff" stroke-opacity="0.08"/>
  <rect x="120" y="220" width="72" height="72" rx="18" fill="url(#accent)"/>
  <path fill="#fff" d="M138 248h48a2 2 0 0 1 2 2v24a2 2 0 0 1-2 2h-48a2 2 0 0 1-2-2v-24a2 2 0 0 1 2-2zm0 10 24 16 24-16"/>
  <text x="220" y="255" fill="#ffffff" font-family="system-ui, -apple-system, Segoe UI, sans-serif" font-size="56" font-weight="700">Helpdesk</text>
  <text x="220" y="320" fill="#cbd5e1" font-family="system-ui, -apple-system, Segoe UI, sans-serif" font-size="34">Customer support &amp; ITSM in one workspace</text>
  <text x="220" y="385" fill="#94a3b8" font-family="system-ui, -apple-system, Segoe UI, sans-serif" font-size="26">Tickets · Chat · Knowledge base · SLA · Service Desk</text>
</svg>
